<svg width="349" height="311" viewBox="0 0 349 311" fill="none" xmlns="http://www.w3.org/2000/svg">
<circle cx="2" cy="43.8219" r="2" fill="#ABB2BF"/>
<circle cx="16.75" cy="43.8219" r="2" fill="#ABB2BF"/>
<circle cx="31.5" cy="43.8219" r="2" fill="#ABB2BF"/>
<circle cx="46.25" cy="43.8219" r="2" fill="#ABB2BF"/>
<circle cx="61" cy="43.8219" r="2" fill="#ABB2BF"/>
<circle cx="2" cy="60.0822" r="2" fill="#ABB2BF"/>
<circle cx="16.75" cy="60.0822" r="2" fill="#ABB2BF"/>
<circle cx="31.5" cy="60.0822" r="2" fill="#ABB2BF"/>
<circle cx="46.25" cy="60.0822" r="2" fill="#ABB2BF"/>
<circle cx="61" cy="60.0822" r="2" fill="#ABB2BF"/>
<circle cx="2" cy="76.3424" r="2" fill="#ABB2BF"/>
<circle cx="16.75" cy="76.3424" r="2" fill="#ABB2BF"/>
<circle cx="31.5" cy="76.3424" r="2" fill="#ABB2BF"/>
<circle cx="46.25" cy="76.3424" r="2" fill="#ABB2BF"/>
<circle cx="61" cy="76.3424" r="2" fill="#ABB2BF"/>
<circle cx="2" cy="92.6028" r="2" fill="#ABB2BF"/>
<circle cx="16.75" cy="92.6028" r="2" fill="#ABB2BF"/>
<circle cx="31.5" cy="92.6028" r="2" fill="#ABB2BF"/>
<circle cx="46.25" cy="92.6028" r="2" fill="#ABB2BF"/>
<circle cx="61" cy="92.6028" r="2" fill="#ABB2BF"/>
<circle cx="2" cy="108.863" r="2" fill="#ABB2BF"/>
<circle cx="16.75" cy="108.863" r="2" fill="#ABB2BF"/>
<circle cx="31.5" cy="108.863" r="2" fill="#ABB2BF"/>
<circle cx="46.25" cy="108.863" r="2" fill="#ABB2BF"/>
<circle cx="61" cy="108.863" r="2" fill="#ABB2BF"/>
<circle cx="179" cy="158.89" r="2" fill="#ABB2BF"/>
<circle cx="193.75" cy="158.89" r="2" fill="#ABB2BF"/>
<circle cx="208.5" cy="158.89" r="2" fill="#ABB2BF"/>
<circle cx="223.25" cy="158.89" r="2" fill="#ABB2BF"/>
<circle cx="238" cy="158.89" r="2" fill="#ABB2BF"/>
<circle cx="179" cy="175.151" r="2" fill="#ABB2BF"/>
<circle cx="193.75" cy="175.151" r="2" fill="#ABB2BF"/>
<circle cx="208.5" cy="175.151" r="2" fill="#ABB2BF"/>
<circle cx="223.25" cy="175.151" r="2" fill="#ABB2BF"/>
<circle cx="238" cy="175.151" r="2" fill="#ABB2BF"/>
<circle cx="179" cy="191.411" r="2" fill="#ABB2BF"/>
<circle cx="193.75" cy="191.411" r="2" fill="#ABB2BF"/>
<circle cx="208.5" cy="191.411" r="2" fill="#ABB2BF"/>
<circle cx="223.25" cy="191.411" r="2" fill="#ABB2BF"/>
<circle cx="238" cy="191.411" r="2" fill="#ABB2BF"/>
<circle cx="179" cy="207.671" r="2" fill="#ABB2BF"/>
<circle cx="193.75" cy="207.671" r="2" fill="#ABB2BF"/>
<circle cx="208.5" cy="207.671" r="2" fill="#ABB2BF"/>
<circle cx="223.25" cy="207.671" r="2" fill="#ABB2BF"/>
<circle cx="238" cy="207.671" r="2" fill="#ABB2BF"/>
<circle cx="179" cy="223.932" r="2" fill="#ABB2BF"/>
<circle cx="193.75" cy="223.932" r="2" fill="#ABB2BF"/>
<circle cx="208.5" cy="223.932" r="2" fill="#ABB2BF"/>
<circle cx="223.25" cy="223.932" r="2" fill="#ABB2BF"/>
<circle cx="238" cy="223.932" r="2" fill="#ABB2BF"/>
<rect x="297.5" y="212.185" width="51" height="55.9863" stroke="#ABB2BF"/>
<rect x="227.5" y="0.678101" width="85" height="93.2466" stroke="#ABB2BF"/>
<mask id="path-53-inside-1_29_371" fill="white">
<path fill-rule="evenodd" clip-rule="evenodd" d="M71.5 185.384H99.75H128V216.342H99.75H71.5V185.384ZM128 247.301V278.26H99.75H71.5V247.301H99.75V216.342H128V247.301Z"/>
</mask>
<path d="M71.5 185.384V184.384H70.5V185.384H71.5ZM128 185.384H129V184.384H128V185.384ZM128 216.342V217.342H129V216.342H128ZM71.5 216.342H70.5V217.342H71.5V216.342ZM128 278.26V279.26H129V278.26H128ZM71.5 278.26H70.5V279.26H71.5V278.26ZM71.5 247.301V246.301H70.5V247.301H71.5ZM99.75 247.301V248.301H100.75V247.301H99.75ZM99.75 216.342V215.342H98.75V216.342H99.75ZM128 216.342H129V215.342H128V216.342ZM99.75 184.384H71.5V186.384H99.75V184.384ZM128 184.384H99.75V186.384H128V184.384ZM129 216.342V185.384H127V216.342H129ZM99.75 217.342H128V215.342H99.75V217.342ZM71.5 217.342H99.75V215.342H71.5V217.342ZM70.5 185.384V216.342H72.5V185.384H70.5ZM129 278.26V247.301H127V278.26H129ZM99.75 279.26H128V277.26H99.75V279.26ZM99.75 277.26H71.5V279.26H99.75V277.26ZM72.5 278.26V247.301H70.5V278.26H72.5ZM71.5 248.301H99.75V246.301H71.5V248.301ZM98.75 216.342V247.301H100.75V216.342H98.75ZM128 215.342H99.75V217.342H128V215.342ZM129 247.301V216.342H127V247.301H129Z" fill="#C778DD" mask="url(#path-53-inside-1_29_371)"/>
<mask id="path-55-outside-2_29_371" maskUnits="userSpaceOnUse" x="14" y="215.343" width="59" height="95" fill="black">
<rect fill="white" x="14" y="215.343" width="59" height="95"/>
<path fill-rule="evenodd" clip-rule="evenodd" d="M15 216.343H43.25H71.5V247.302H43.25V278.26H71.5V309.219H43.25H15V278.26V247.302V247.302V216.343Z"/>
</mask>
<path d="M15 216.343V215.343H14V216.343H15ZM71.5 216.343H72.5V215.343H71.5V216.343ZM71.5 247.302V248.302H72.5V247.302H71.5ZM43.25 247.302V246.302H42.25V247.302H43.25ZM43.25 278.26H42.25V279.26H43.25V278.26ZM71.5 278.26H72.5V277.26H71.5V278.26ZM71.5 309.219V310.219H72.5V309.219H71.5ZM15 309.219H14V310.219H15V309.219ZM43.25 215.343H15V217.343H43.25V215.343ZM71.5 215.343H43.25V217.343H71.5V215.343ZM72.5 247.302V216.343H70.5V247.302H72.5ZM43.25 248.302H71.5V246.302H43.25V248.302ZM44.25 278.26V247.302H42.25V278.26H44.25ZM43.25 279.26H71.5V277.26H43.25V279.26ZM70.5 278.26V309.219H72.5V278.26H70.5ZM71.5 308.219H43.25V310.219H71.5V308.219ZM15 310.219H43.25V308.219H15V310.219ZM14 278.26V309.219H16V278.26H14ZM14 247.302V278.26H16V247.302H14ZM14 247.302V247.302H16V247.302H14ZM14 216.343V247.302H16V216.343H14Z" fill="#C778DD" mask="url(#path-55-outside-2_29_371)"/>
</svg>
